<svg xmlns="http://www.w3.org/2000/svg" width="293" height="60"><g fill="none" fill-rule="evenodd"><path fill="#1A1919" d="M69.383 44.983c.64 0 1.269-.12 1.869-.35v.47a5.71 5.71 0 0 1-1.919.35c-1.769 0-2.978-.94-2.978-3.298 0-2.36 1.209-3.319 2.968-3.319.67 0 1.32.13 1.929.371v.469c-.6-.23-1.229-.37-1.869-.37-1.529 0-2.538.75-2.538 2.849 0 2.098 1.019 2.828 2.538 2.828"/><path stroke="#1A1919" stroke-width=".75" d="M69.383 44.983c.64 0 1.269-.12 1.869-.35v.47a5.71 5.71 0 0 1-1.919.35c-1.769 0-2.978-.94-2.978-3.298 0-2.36 1.209-3.319 2.968-3.319.67 0 1.32.13 1.929.371v.469c-.6-.23-1.229-.37-1.869-.37-1.529 0-2.538.75-2.538 2.849 0 2.098 1.019 2.828 2.538 2.828z"/><path fill="#1A1919" d="M81.512 42.145c0-1.899-.74-2.839-2.469-2.839-1.719 0-2.468.94-2.468 2.839 0 1.908.749 2.838 2.468 2.838 1.729 0 2.469-.93 2.469-2.838zm.5 0c0 2.168-.96 3.308-2.969 3.308-1.998 0-2.958-1.14-2.958-3.308 0-2.169.96-3.309 2.958-3.309 2.009 0 2.969 1.14 2.969 3.309z"/><path stroke="#1A1919" stroke-width=".75" d="M81.512 42.145c0-1.899-.74-2.839-2.469-2.839-1.719 0-2.468.94-2.468 2.839 0 1.908.749 2.838 2.468 2.838 1.729 0 2.469-.93 2.469-2.838zm.5 0c0 2.168-.96 3.308-2.969 3.308-1.998 0-2.958-1.14-2.958-3.308 0-2.169.96-3.309 2.958-3.309 2.009 0 2.969 1.14 2.969 3.309z"/><path fill="#1A1919" d="M93.292 38.936v6.427h-.5v-5.607l-2.429 3.478-2.428-3.478v5.607h-.49v-6.427h.529l2.389 3.479 2.389-3.479h.54"/><path stroke="#1A1919" stroke-width=".75" d="M93.292 38.936v6.427h-.5v-5.607l-2.429 3.478-2.428-3.478v5.607h-.49v-6.427h.529l2.389 3.479 2.389-3.479z"/><path fill="#1A1919" d="M104.722 38.936v6.427h-.5v-5.607l-2.429 3.478-2.428-3.478v5.607h-.49v-6.427h.529l2.389 3.479 2.389-3.479h.54"/><path stroke="#1A1919" stroke-width=".75" d="M104.722 38.936v6.427h-.5v-5.607l-2.429 3.478-2.428-3.478v5.607h-.49v-6.427h.529l2.389 3.479 2.389-3.479z"/><path fill="#1A1919" d="M110.865 38.936v3.918c0 1.43.699 2.149 2.038 2.149 1.35 0 2.049-.719 2.049-2.149v-3.918h.5v3.898c0 1.7-.909 2.609-2.549 2.609-1.628 0-2.538-.909-2.538-2.609v-3.898h.5"/><path stroke="#1A1919" stroke-width=".75" d="M110.865 38.936v3.918c0 1.43.699 2.149 2.038 2.149 1.35 0 2.049-.719 2.049-2.149v-3.918h.5v3.898c0 1.7-.909 2.609-2.549 2.609-1.628 0-2.538-.909-2.538-2.609v-3.898h.5z"/><path fill="#1A1919" d="M125.672 45.363l-4.057-5.687v5.687h-.5v-6.427h.559l4.048 5.697v-5.697h.5v6.427h-.55"/><path stroke="#1A1919" stroke-width=".75" d="M125.672 45.363l-4.057-5.687v5.687h-.5v-6.427h.559l4.048 5.697v-5.697h.5v6.427z"/><path fill="#1A1919" d="M131.915 45.363h.489v-6.427h-.489z"/><path stroke="#1A1919" stroke-width=".75" d="M131.915 45.363h.489v-6.427h-.489z"/><path fill="#1A1919" d="M142.691 38.936v.48h-2.328v5.947h-.5v-5.947h-2.338v-.48h5.166"/><path stroke="#1A1919" stroke-width=".75" d="M142.691 38.936v.48h-2.328v5.947h-.5v-5.947h-2.338v-.48z"/><path fill="#1A1919" d="M152.791 38.936l-2.389 3.599v2.828h-.499v-2.828l-2.399-3.599h.6l2.049 3.118 2.049-3.118h.589"/><path stroke="#1A1919" stroke-width=".75" d="M152.791 38.936l-2.389 3.599v2.828h-.499v-2.828l-2.399-3.599h.6l2.049 3.118 2.049-3.118z"/><path fill="#1A1919" d="M167.742 44.983c.64 0 1.269-.12 1.869-.35v.47a5.71 5.71 0 0 1-1.919.35c-1.769 0-2.978-.94-2.978-3.298 0-2.36 1.209-3.319 2.968-3.319.67 0 1.32.13 1.929.371v.469c-.6-.23-1.229-.37-1.869-.37-1.529 0-2.538.75-2.538 2.849 0 2.098 1.019 2.828 2.538 2.828"/><path stroke="#1A1919" stroke-width=".75" d="M167.742 44.983c.64 0 1.269-.12 1.869-.35v.47a5.71 5.71 0 0 1-1.919.35c-1.769 0-2.978-.94-2.978-3.298 0-2.36 1.209-3.319 2.968-3.319.67 0 1.32.13 1.929.371v.469c-.6-.23-1.229-.37-1.869-.37-1.529 0-2.538.75-2.538 2.849 0 2.098 1.019 2.828 2.538 2.828z"/><path fill="#1A1919" d="M179.871 42.145c0-1.899-.74-2.839-2.469-2.839-1.719 0-2.468.94-2.468 2.839 0 1.908.749 2.838 2.468 2.838 1.729 0 2.469-.93 2.469-2.838zm.5 0c0 2.168-.96 3.308-2.969 3.308-1.999 0-2.958-1.14-2.958-3.308 0-2.169.959-3.309 2.958-3.309 2.009 0 2.969 1.14 2.969 3.309z"/><path stroke="#1A1919" stroke-width=".75" d="M179.871 42.145c0-1.899-.74-2.839-2.469-2.839-1.719 0-2.468.94-2.468 2.839 0 1.908.749 2.838 2.468 2.838 1.729 0 2.469-.93 2.469-2.838zm.5 0c0 2.168-.96 3.308-2.969 3.308-1.999 0-2.958-1.14-2.958-3.308 0-2.169.959-3.309 2.958-3.309 2.009 0 2.969 1.14 2.969 3.309z"/><path fill="#1A1919" d="M189.711 44.883v.48h-3.857v-6.427h.489v5.947h3.368"/><path stroke="#1A1919" stroke-width=".75" d="M189.711 44.883v.48h-3.857v-6.427h.489v5.947z"/><path fill="#1A1919" d="M198.722 44.883v.48h-3.858v-6.427h.49v5.947h3.368"/><path stroke="#1A1919" stroke-width=".75" d="M198.722 44.883v.48h-3.858v-6.427h.49v5.947z"/><path fill="#1A1919" d="M205.153 42.854h2.649l-1.329-3.318-1.32 3.318zm4.178 2.509h-.53c-.279-.67-.539-1.36-.819-2.039h-3.019l-.809 2.039h-.54c.88-2.139 1.739-4.288 2.619-6.427h.49l2.608 6.427z"/><path stroke="#1A1919" stroke-width=".75" d="M205.153 42.854h2.649l-1.329-3.318-1.32 3.318zm4.178 2.509h-.53c-.279-.67-.539-1.36-.819-2.039h-3.019l-.809 2.039h-.54c.88-2.139 1.739-4.288 2.619-6.427h.49l2.608 6.427z"/><path fill="#1A1919" d="M218.561 43.574c0-1.05-.839-1.289-1.709-1.289h-1.859v2.618h1.879c.94 0 1.689-.33 1.689-1.329zm-1.899-4.168h-1.669v2.419h1.729c.849 0 1.479-.31 1.479-1.2 0-.839-.55-1.219-1.539-1.219zm2.399 4.208c0 1.159-.84 1.749-2.229 1.749h-2.328v-6.427h2.108c1.579 0 2.079.79 2.079 1.629 0 .94-.61 1.359-.919 1.41.319.029 1.289.399 1.289 1.639z"/><path stroke="#1A1919" stroke-width=".75" d="M218.561 43.574c0-1.05-.839-1.289-1.709-1.289h-1.859v2.618h1.879c.94 0 1.689-.33 1.689-1.329zm-1.899-4.168h-1.669v2.419h1.729c.849 0 1.479-.31 1.479-1.2 0-.839-.55-1.219-1.539-1.219zm2.399 4.208c0 1.159-.84 1.749-2.229 1.749h-2.328v-6.427h2.108c1.579 0 2.079.79 2.079 1.629 0 .94-.61 1.359-.919 1.41.319.029 1.289.399 1.289 1.639z"/><path fill="#1A1919" d="M229.64 42.145c0-1.899-.74-2.839-2.469-2.839-1.718 0-2.468.94-2.468 2.839 0 1.908.75 2.838 2.468 2.838 1.729 0 2.469-.93 2.469-2.838zm.5 0c0 2.168-.959 3.308-2.969 3.308-1.998 0-2.958-1.14-2.958-3.308 0-2.169.96-3.309 2.958-3.309 2.01 0 2.969 1.14 2.969 3.309z"/><path stroke="#1A1919" stroke-width=".75" d="M229.64 42.145c0-1.899-.74-2.839-2.469-2.839-1.718 0-2.468.94-2.468 2.839 0 1.908.75 2.838 2.468 2.838 1.729 0 2.469-.93 2.469-2.838zm.5 0c0 2.168-.959 3.308-2.969 3.308-1.998 0-2.958-1.14-2.958-3.308 0-2.169.96-3.309 2.958-3.309 2.01 0 2.969 1.14 2.969 3.309z"/><path fill="#1A1919" d="M236.123 39.406v2.818h1.749c1.279 0 1.659-.649 1.659-1.409 0-.72-.33-1.409-1.659-1.409h-1.749zm3.578 5.957l-1.729-2.669h-1.849v2.669h-.5v-6.427h2.279c1.359 0 2.129.67 2.129 1.85 0 1.329-1.02 1.749-1.539 1.829l1.789 2.748h-.58z"/><path stroke="#1A1919" stroke-width=".75" d="M236.123 39.406v2.818h1.749c1.279 0 1.659-.649 1.659-1.409 0-.72-.33-1.409-1.659-1.409h-1.749zm3.578 5.957l-1.729-2.669h-1.849v2.669h-.5v-6.427h2.279c1.359 0 2.129.67 2.129 1.85 0 1.329-1.02 1.749-1.539 1.829l1.789 2.748h-.58z"/><path fill="#1A1919" d="M246.773 42.854h2.648l-1.329-3.318-1.319 3.318zm4.177 2.509h-.529c-.28-.67-.54-1.36-.82-2.039h-3.018l-.81 2.039h-.54c.88-2.139 1.739-4.288 2.619-6.427h.49l2.608 6.427z"/><path stroke="#1A1919" stroke-width=".75" d="M246.773 42.854h2.648l-1.329-3.318-1.319 3.318zm4.177 2.509h-.529c-.28-.67-.54-1.36-.82-2.039h-3.018l-.81 2.039h-.54c.88-2.139 1.739-4.288 2.619-6.427h.49l2.608 6.427z"/><path fill="#1A1919" d="M259.81 38.936v.48h-2.328v5.947h-.5v-5.947h-2.339v-.48h5.167"/><path stroke="#1A1919" stroke-width=".75" d="M259.81 38.936v.48h-2.328v5.947h-.5v-5.947h-2.339v-.48z"/><path fill="#1A1919" d="M264.922 45.363h.49v-6.427h-.49z"/><path stroke="#1A1919" stroke-width=".75" d="M264.922 45.363h.49v-6.427h-.49z"/><path fill="#1A1919" d="M270.543 38.936h.529l2.269 5.717 2.259-5.717h.529l-2.548 6.427h-.49l-2.548-6.427"/><path stroke="#1A1919" stroke-width=".75" d="M270.543 38.936h.529l2.269 5.717 2.259-5.717h.529l-2.548 6.427h-.49z"/><path fill="#1A1919" d="M281.752 41.884h3.078v.481h-3.078v2.528h3.488v.47h-3.978v-6.427h3.978v.46h-3.488v2.488"/><path stroke="#1A1919" stroke-width=".75" d="M281.752 41.884h3.078v.481h-3.078v2.528h3.488v.47h-3.978v-6.427h3.978v.46h-3.488z"/><path fill="#1A1919" d="M60.431 15.083c0-1.672.295-3.337.882-4.997a13.87 13.87 0 0 1 2.568-4.449c1.123-1.306 2.508-2.371 4.154-3.193 1.647-.824 3.514-1.235 5.606-1.235 2.481 0 4.605.562 6.368 1.685 1.764 1.124 3.063 2.587 3.9 4.389l-2.156 1.333c-.444-.914-.986-1.685-1.626-2.312a9.114 9.114 0 0 0-2.058-1.529 8.699 8.699 0 0 0-2.273-.842 10.894 10.894 0 0 0-2.313-.255c-1.672 0-3.149.34-4.428 1.019a10.2 10.2 0 0 0-3.234 2.665 11.628 11.628 0 0 0-1.979 3.704 13.445 13.445 0 0 0-.667 4.174c0 1.542.268 3.018.804 4.429a12.534 12.534 0 0 0 2.195 3.743 10.543 10.543 0 0 0 3.292 2.587c1.267.64 2.646.96 4.135.96.784 0 1.588-.098 2.41-.294a9.335 9.335 0 0 0 2.391-.94 10.058 10.058 0 0 0 2.136-1.608c.653-.639 1.201-1.417 1.646-2.332l2.274 1.176a8.553 8.553 0 0 1-1.881 2.764 12.4 12.4 0 0 1-2.705 2.018c-.993.548-2.045.967-3.155 1.254a13.054 13.054 0 0 1-3.273.431c-1.908 0-3.659-.418-5.252-1.254a13.756 13.756 0 0 1-4.115-3.273 15.172 15.172 0 0 1-2.685-4.585 14.831 14.831 0 0 1-.961-5.233"/><path stroke="#1A1919" stroke-width="2" d="M60.431 15.083c0-1.672.295-3.337.882-4.997a13.87 13.87 0 0 1 2.568-4.449c1.123-1.306 2.508-2.371 4.154-3.193 1.647-.824 3.514-1.235 5.606-1.235 2.481 0 4.605.562 6.368 1.685 1.764 1.124 3.063 2.587 3.9 4.389l-2.156 1.333c-.444-.914-.986-1.685-1.626-2.312a9.114 9.114 0 0 0-2.058-1.529 8.699 8.699 0 0 0-2.273-.842 10.894 10.894 0 0 0-2.313-.255c-1.672 0-3.149.34-4.428 1.019a10.2 10.2 0 0 0-3.234 2.665 11.628 11.628 0 0 0-1.979 3.704 13.445 13.445 0 0 0-.667 4.174c0 1.542.268 3.018.804 4.429a12.534 12.534 0 0 0 2.195 3.743 10.543 10.543 0 0 0 3.292 2.587c1.267.64 2.646.96 4.135.96.784 0 1.588-.098 2.41-.294a9.335 9.335 0 0 0 2.391-.94 10.058 10.058 0 0 0 2.136-1.608c.653-.639 1.201-1.417 1.646-2.332l2.274 1.176a8.553 8.553 0 0 1-1.881 2.764 12.4 12.4 0 0 1-2.705 2.018c-.993.548-2.045.967-3.155 1.254a13.054 13.054 0 0 1-3.273.431c-1.908 0-3.659-.418-5.252-1.254a13.756 13.756 0 0 1-4.115-3.273 15.172 15.172 0 0 1-2.685-4.585 14.831 14.831 0 0 1-.961-5.233z"/><path fill="#1A1919" d="M97.627 15.28c0 1.515.248 2.972.745 4.369a11.858 11.858 0 0 0 2.116 3.724 10.386 10.386 0 0 0 3.253 2.586c1.254.641 2.652.961 4.194.961 1.568 0 2.992-.34 4.272-1.02a10.425 10.425 0 0 0 3.253-2.664 12.346 12.346 0 0 0 2.058-3.724c.483-1.385.725-2.795.725-4.232 0-1.516-.255-2.973-.765-4.371a11.918 11.918 0 0 0-2.136-3.704 10.526 10.526 0 0 0-3.252-2.567c-1.255-.64-2.64-.96-4.155-.96-1.568 0-2.992.333-4.272.999a10.186 10.186 0 0 0-3.254 2.646 12.305 12.305 0 0 0-2.057 3.723 12.777 12.777 0 0 0-.725 4.234zm10.308 14.109c-1.934 0-3.704-.398-5.31-1.195a13.195 13.195 0 0 1-4.136-3.176 14.399 14.399 0 0 1-2.665-4.526 14.939 14.939 0 0 1-.941-5.212c0-1.856.333-3.633 1-5.331a14.698 14.698 0 0 1 2.763-4.508 13.396 13.396 0 0 1 4.154-3.116c1.594-.77 3.319-1.156 5.174-1.156 1.933 0 3.704.412 5.311 1.235a13.347 13.347 0 0 1 4.115 3.233 14.94 14.94 0 0 1 2.646 4.528c.627 1.684.941 3.403.941 5.154a14.45 14.45 0 0 1-1 5.33 14.648 14.648 0 0 1-2.744 4.488 13.288 13.288 0 0 1-4.134 3.096c-1.595.771-3.319 1.156-5.174 1.156z"/><path stroke="#1A1919" stroke-width="2" d="M97.627 15.28c0 1.515.248 2.972.745 4.369a11.858 11.858 0 0 0 2.116 3.724 10.386 10.386 0 0 0 3.253 2.586c1.254.641 2.652.961 4.194.961 1.568 0 2.992-.34 4.272-1.02a10.425 10.425 0 0 0 3.253-2.664 12.346 12.346 0 0 0 2.058-3.724c.483-1.385.725-2.795.725-4.232 0-1.516-.255-2.973-.765-4.371a11.918 11.918 0 0 0-2.136-3.704 10.526 10.526 0 0 0-3.252-2.567c-1.255-.64-2.64-.96-4.155-.96-1.568 0-2.992.333-4.272.999a10.186 10.186 0 0 0-3.254 2.646 12.305 12.305 0 0 0-2.057 3.723 12.777 12.777 0 0 0-.725 4.234zm10.308 14.109c-1.934 0-3.704-.398-5.31-1.195a13.195 13.195 0 0 1-4.136-3.176 14.399 14.399 0 0 1-2.665-4.526 14.939 14.939 0 0 1-.941-5.212c0-1.856.333-3.633 1-5.331a14.698 14.698 0 0 1 2.763-4.508 13.396 13.396 0 0 1 4.154-3.116c1.594-.77 3.319-1.156 5.174-1.156 1.933 0 3.704.412 5.311 1.235a13.347 13.347 0 0 1 4.115 3.233 14.94 14.94 0 0 1 2.646 4.528c.627 1.684.941 3.403.941 5.154a14.45 14.45 0 0 1-1 5.33 14.648 14.648 0 0 1-2.744 4.488 13.288 13.288 0 0 1-4.134 3.096c-1.595.771-3.319 1.156-5.174 1.156z"/><path fill="#1A1919" d="M158.651 29.193V6.343L148.5 24.019h-1.607L136.741 6.343v22.85h-2.743V1.365h2.822l10.857 19.048 10.935-19.048h2.783v27.828h-2.744"/><path stroke="#1A1919" stroke-width="2" d="M158.651 29.193V6.343L148.5 24.019h-1.607L136.741 6.343v22.85h-2.743V1.365h2.822l10.857 19.048 10.935-19.048h2.783v27.828z"/><path fill="#1A1919" d="M178.953 16.495h8.897a4.66 4.66 0 0 0 2.215-.53 5.38 5.38 0 0 0 1.705-1.411 6.643 6.643 0 0 0 1.097-2.038 7.46 7.46 0 0 0 .392-2.41c0-.863-.151-1.679-.45-2.45a6.71 6.71 0 0 0-1.215-2.019 5.558 5.558 0 0 0-1.803-1.351 5.038 5.038 0 0 0-2.175-.491h-8.663v12.7zm-2.743 12.698V1.365h11.523c1.201 0 2.305.255 3.312.765a8.72 8.72 0 0 1 2.606 1.998 9.535 9.535 0 0 1 1.725 2.803 8.503 8.503 0 0 1 .627 3.175c0 1.15-.197 2.253-.588 3.311a8.967 8.967 0 0 1-1.646 2.803 8.25 8.25 0 0 1-2.529 1.959c-.979.497-2.071.745-3.272.745h-9.015v10.269h-2.743z"/><path stroke="#1A1919" stroke-width="2" d="M178.953 16.495h8.897a4.66 4.66 0 0 0 2.215-.53 5.38 5.38 0 0 0 1.705-1.411 6.643 6.643 0 0 0 1.097-2.038 7.46 7.46 0 0 0 .392-2.41c0-.863-.151-1.679-.45-2.45a6.71 6.71 0 0 0-1.215-2.019 5.558 5.558 0 0 0-1.803-1.351 5.038 5.038 0 0 0-2.175-.491h-8.663v12.7zm-2.743 12.698V1.365h11.523c1.201 0 2.305.255 3.312.765a8.72 8.72 0 0 1 2.606 1.998 9.535 9.535 0 0 1 1.725 2.803 8.503 8.503 0 0 1 .627 3.175c0 1.15-.197 2.253-.588 3.311a8.967 8.967 0 0 1-1.646 2.803 8.25 8.25 0 0 1-2.529 1.959c-.979.497-2.071.745-3.272.745h-9.015v10.269h-2.743z"/><path fill="#1A1919" d="M222.026 18.337L216.421 4.58l-5.683 13.757h11.288zm-6.741-16.972h2.312l11.562 27.828h-2.9l-3.606-8.701h-12.502l-3.567 8.701h-2.939l11.64-27.828z"/><path stroke="#1A1919" stroke-width="2" d="M222.026 18.337L216.421 4.58l-5.683 13.757h11.288zm-6.741-16.972h2.312l11.562 27.828h-2.9l-3.606-8.701h-12.502l-3.567 8.701h-2.939l11.64-27.828z"/><path fill="#1A1919" d="M256.831 6.578c-.785-.888-1.83-1.607-3.137-2.156-1.306-.548-2.795-.823-4.467-.823-2.457 0-4.247.464-5.37 1.392-1.124.927-1.685 2.189-1.685 3.782 0 .837.15 1.523.45 2.058.301.536.765.999 1.392 1.391.627.392 1.43.732 2.411 1.019a49.7 49.7 0 0 0 3.468.863c1.49.313 2.828.666 4.017 1.057 1.189.392 2.202.882 3.038 1.47.835.588 1.475 1.3 1.92 2.136.444.837.666 1.882.666 3.136 0 1.281-.248 2.391-.744 3.331a6.645 6.645 0 0 1-2.077 2.352c-.889.627-1.947 1.091-3.175 1.391-1.229.301-2.574.451-4.037.451-4.312 0-8.035-1.345-11.17-4.037l1.372-2.234a10.79 10.79 0 0 0 1.783 1.489c.692.471 1.463.882 2.312 1.235.849.353 1.757.627 2.724.823.967.196 1.986.294 3.058.294 2.22 0 3.951-.398 5.193-1.195 1.24-.797 1.861-2.005 1.861-3.626 0-.862-.176-1.587-.529-2.175-.353-.588-.882-1.098-1.587-1.529-.705-.43-1.582-.803-2.626-1.117a55.286 55.286 0 0 0-3.646-.94 42.843 42.843 0 0 1-3.84-1.058c-1.098-.366-2.025-.824-2.783-1.372-.758-.549-1.326-1.208-1.705-1.979-.379-.771-.568-1.718-.568-2.842 0-1.28.241-2.423.725-3.43a6.733 6.733 0 0 1 2.058-2.508c.888-.666 1.933-1.176 3.135-1.529 1.202-.352 2.535-.529 3.998-.529 1.855 0 3.507.282 4.958.843a13.365 13.365 0 0 1 3.939 2.371l-1.332 2.195"/><path stroke="#1A1919" stroke-width="2" d="M256.831 6.578c-.785-.888-1.83-1.607-3.137-2.156-1.306-.548-2.795-.823-4.467-.823-2.457 0-4.247.464-5.37 1.392-1.124.927-1.685 2.189-1.685 3.782 0 .837.15 1.523.45 2.058.301.536.765.999 1.392 1.391.627.392 1.43.732 2.411 1.019a49.7 49.7 0 0 0 3.468.863c1.49.313 2.828.666 4.017 1.057 1.189.392 2.202.882 3.038 1.47.835.588 1.475 1.3 1.92 2.136.444.837.666 1.882.666 3.136 0 1.281-.248 2.391-.744 3.331a6.645 6.645 0 0 1-2.077 2.352c-.889.627-1.947 1.091-3.175 1.391-1.229.301-2.574.451-4.037.451-4.312 0-8.035-1.345-11.17-4.037l1.372-2.234a10.79 10.79 0 0 0 1.783 1.489c.692.471 1.463.882 2.312 1.235.849.353 1.757.627 2.724.823.967.196 1.986.294 3.058.294 2.22 0 3.951-.398 5.193-1.195 1.24-.797 1.861-2.005 1.861-3.626 0-.862-.176-1.587-.529-2.175-.353-.588-.882-1.098-1.587-1.529-.705-.43-1.582-.803-2.626-1.117a55.286 55.286 0 0 0-3.646-.94 42.843 42.843 0 0 1-3.84-1.058c-1.098-.366-2.025-.824-2.783-1.372-.758-.549-1.326-1.208-1.705-1.979-.379-.771-.568-1.718-.568-2.842 0-1.28.241-2.423.725-3.43a6.733 6.733 0 0 1 2.058-2.508c.888-.666 1.933-1.176 3.135-1.529 1.202-.352 2.535-.529 3.998-.529 1.855 0 3.507.282 4.958.843a13.365 13.365 0 0 1 3.939 2.371l-1.332 2.195z"/><path fill="#1A1919" d="M288.46 6.578c-.785-.888-1.83-1.607-3.136-2.156-1.307-.548-2.796-.823-4.468-.823-2.457 0-4.247.464-5.37 1.392-1.124.927-1.685 2.189-1.685 3.782 0 .837.15 1.523.45 2.058.301.536.765.999 1.392 1.391.627.392 1.43.732 2.411 1.019a49.7 49.7 0 0 0 3.468.863c1.49.313 2.828.666 4.017 1.057 1.189.392 2.202.882 3.038 1.47.835.588 1.476 1.3 1.92 2.136.444.837.666 1.882.666 3.136 0 1.281-.248 2.391-.744 3.331a6.645 6.645 0 0 1-2.077 2.352c-.889.627-1.947 1.091-3.175 1.391-1.229.301-2.574.451-4.037.451-4.312 0-8.035-1.345-11.17-4.037l1.372-2.234a10.79 10.79 0 0 0 1.783 1.489c.692.471 1.463.882 2.312 1.235.849.353 1.757.627 2.724.823.967.196 1.986.294 3.058.294 2.22 0 3.951-.398 5.193-1.195 1.24-.797 1.861-2.005 1.861-3.626 0-.862-.176-1.587-.529-2.175-.353-.588-.882-1.098-1.587-1.529-.705-.43-1.582-.803-2.626-1.117a55.286 55.286 0 0 0-3.646-.94 42.843 42.843 0 0 1-3.84-1.058c-1.098-.366-2.025-.824-2.783-1.372-.758-.549-1.326-1.208-1.705-1.979-.379-.771-.568-1.718-.568-2.842 0-1.28.241-2.423.725-3.43a6.733 6.733 0 0 1 2.058-2.508c.888-.666 1.933-1.176 3.135-1.529 1.202-.352 2.535-.529 3.998-.529 1.855 0 3.507.282 4.958.843a13.365 13.365 0 0 1 3.939 2.371l-1.332 2.195"/><path stroke="#1A1919" stroke-width="2" d="M288.46 6.578c-.785-.888-1.83-1.607-3.136-2.156-1.307-.548-2.796-.823-4.468-.823-2.457 0-4.247.464-5.37 1.392-1.124.927-1.685 2.189-1.685 3.782 0 .837.15 1.523.45 2.058.301.536.765.999 1.392 1.391.627.392 1.43.732 2.411 1.019a49.7 49.7 0 0 0 3.468.863c1.49.313 2.828.666 4.017 1.057 1.189.392 2.202.882 3.038 1.47.835.588 1.476 1.3 1.92 2.136.444.837.666 1.882.666 3.136 0 1.281-.248 2.391-.744 3.331a6.645 6.645 0 0 1-2.077 2.352c-.889.627-1.947 1.091-3.175 1.391-1.229.301-2.574.451-4.037.451-4.312 0-8.035-1.345-11.17-4.037l1.372-2.234a10.79 10.79 0 0 0 1.783 1.489c.692.471 1.463.882 2.312 1.235.849.353 1.757.627 2.724.823.967.196 1.986.294 3.058.294 2.22 0 3.951-.398 5.193-1.195 1.24-.797 1.861-2.005 1.861-3.626 0-.862-.176-1.587-.529-2.175-.353-.588-.882-1.098-1.587-1.529-.705-.43-1.582-.803-2.626-1.117a55.286 55.286 0 0 0-3.646-.94 42.843 42.843 0 0 1-3.84-1.058c-1.098-.366-2.025-.824-2.783-1.372-.758-.549-1.326-1.208-1.705-1.979-.379-.771-.568-1.718-.568-2.842 0-1.28.241-2.423.725-3.43a6.733 6.733 0 0 1 2.058-2.508c.888-.666 1.933-1.176 3.135-1.529 1.202-.352 2.535-.529 3.998-.529 1.855 0 3.507.282 4.958.843a13.365 13.365 0 0 1 3.939 2.371l-1.332 2.195z"/><path fill="#1B2117" d="M193.865 57.286c0 1.009-.76 1.729-2.249 1.729-.819 0-1.469-.2-1.959-.439v-.53c.44.249 1.069.479 1.919.479 1.01 0 1.779-.389 1.779-1.239 0-2.029-3.668-.939-3.668-3.148 0-.889.59-1.739 2.119-1.739.68 0 1.249.17 1.709.39v.509a3.599 3.599 0 0 0-1.659-.409c-1.099 0-1.659.479-1.659 1.249 0 1.679 3.668.699 3.668 3.148"/><path stroke="#1C2218" stroke-width=".5" d="M193.865 57.286c0 1.009-.76 1.729-2.249 1.729-.819 0-1.469-.2-1.959-.439v-.53c.44.249 1.069.479 1.919.479 1.01 0 1.779-.389 1.779-1.239 0-2.029-3.668-.939-3.668-3.148 0-.889.59-1.739 2.119-1.739.68 0 1.249.17 1.709.39v.509a3.599 3.599 0 0 0-1.659-.409c-1.099 0-1.659.479-1.659 1.249 0 1.679 3.668.699 3.668 3.148z"/><path fill="#1B2117" d="M202.075 58.545c.64 0 1.269-.119 1.869-.349v.47a5.738 5.738 0 0 1-1.919.349c-1.768 0-2.978-.939-2.978-3.298s1.21-3.318 2.968-3.318c.67 0 1.32.13 1.929.37v.469a5.227 5.227 0 0 0-1.869-.369c-1.529 0-2.538.749-2.538 2.848 0 2.099 1.019 2.828 2.538 2.828"/><path stroke="#1C2218" stroke-width=".5" d="M202.075 58.545c.64 0 1.269-.119 1.869-.349v.47a5.738 5.738 0 0 1-1.919.349c-1.768 0-2.978-.939-2.978-3.298s1.21-3.318 2.968-3.318c.67 0 1.32.13 1.929.37v.469a5.227 5.227 0 0 0-1.869-.369c-1.529 0-2.538.749-2.538 2.848 0 2.099 1.019 2.828 2.538 2.828z"/><path fill="#1B2117" d="M213.864 52.499v6.426h-.499v-2.978h-3.708v2.978h-.49v-6.426h.49v2.968h3.708v-2.968h.499"/><path stroke="#1C2218" stroke-width=".5" d="M213.864 52.499v6.426h-.499v-2.978h-3.708v2.978h-.49v-6.426h.49v2.968h3.708v-2.968z"/><path fill="#1B2117" d="M224.764 55.707c0-1.899-.74-2.838-2.468-2.838-1.72 0-2.469.939-2.469 2.838 0 1.909.749 2.838 2.469 2.838 1.728 0 2.468-.929 2.468-2.838zm.499 0c0 2.169-.959 3.308-2.967 3.308-1.999 0-2.959-1.139-2.959-3.308 0-2.169.96-3.308 2.959-3.308 2.008 0 2.967 1.139 2.967 3.308z"/><path stroke="#1C2218" stroke-width=".5" d="M224.764 55.707c0-1.899-.74-2.838-2.468-2.838-1.72 0-2.469.939-2.469 2.838 0 1.909.749 2.838 2.469 2.838 1.728 0 2.468-.929 2.468-2.838zm.499 0c0 2.169-.959 3.308-2.967 3.308-1.999 0-2.959-1.139-2.959-3.308 0-2.169.96-3.308 2.959-3.308 2.008 0 2.967 1.139 2.967 3.308z"/><path fill="#1B2117" d="M235.955 55.707c0-1.899-.74-2.838-2.469-2.838-1.72 0-2.469.939-2.469 2.838 0 1.909.749 2.838 2.469 2.838 1.729 0 2.469-.929 2.469-2.838zm.499 0c0 2.169-.959 3.308-2.968 3.308-1.999 0-2.959-1.139-2.959-3.308 0-2.169.96-3.308 2.959-3.308 2.009 0 2.968 1.139 2.968 3.308z"/><path stroke="#1C2218" stroke-width=".5" d="M235.955 55.707c0-1.899-.74-2.838-2.469-2.838-1.72 0-2.469.939-2.469 2.838 0 1.909.749 2.838 2.469 2.838 1.729 0 2.469-.929 2.469-2.838zm.499 0c0 2.169-.959 3.308-2.968 3.308-1.999 0-2.959-1.139-2.959-3.308 0-2.169.96-3.308 2.959-3.308 2.009 0 2.968 1.139 2.968 3.308z"/><path fill="#1B2117" d="M245.795 58.446v.479h-3.859v-6.426h.49v5.947h3.369"/><path stroke="#1C2218" stroke-width=".5" d="M245.795 58.446v.479h-3.859v-6.426h.49v5.947z"/><path fill="#F0C55A" d="M255.097 59.114a3.464 3.464 0 1 0 0-6.928 3.464 3.464 0 0 0 0 6.928"/><path fill="#E1795E" d="M264.163 59.114a3.464 3.464 0 1 0 0-6.928 3.464 3.464 0 0 0 0 6.928"/><path fill="#7A2D42" d="M273.379 59.114a3.464 3.464 0 1 0 0-6.928 3.464 3.464 0 0 0 0 6.928"/><path fill="#3C2A3C" d="M282.579 59.114a3.464 3.464 0 1 0 0-6.928 3.464 3.464 0 0 0 0 6.928"/><path fill="#A1C958" d="M8.863 37.735C.705 29.578.449 16.511 8.095 8.046c-.275.247-.544.503-.809.768-8.422 8.422-8.422 22.076 0 30.498s22.077 8.422 30.498 0c.265-.265.521-.534.769-.809-8.466 7.646-21.533 7.39-29.69-.768"/><path fill="#3C2A3C" d="M44.498 26.101a2.039 2.039 0 1 0 0-4.078 2.039 2.039 0 0 0 0 4.078"/><path fill="#7A2D42" d="M43.603 17.521a2.039 2.039 0 1 0-1.562-3.767 2.039 2.039 0 0 0 1.562 3.767"/><path fill="#E1795E" d="M32.791 4.503a2.038 2.038 0 1 0-3.766-1.56 2.038 2.038 0 0 0 3.766 1.56"/><path fill="#F0C55A" d="M24.521 2.047a2.038 2.038 0 1 0-4.076 0 2.038 2.038 0 0 0 4.076 0"/><path fill="#D1B584" d="M29.668 21.886l7.744-12.752-12.753 7.742 5.009 5.01"/><path fill="#1A1919" d="M.217 46.31c.065-.13.12-.266.195-.389 1.6-2.639 3.2-5.278 4.802-7.915 3.839-6.322 7.675-12.645 11.525-18.96.165-.271.415-.526.685-.691C26.382 12.903 35.346 7.462 44.31 2.021c.125-.076.258-.137.387-.205-.065.13-.122.265-.197.389a28428.98 28428.98 0 0 1-16.373 26.954 1.802 1.802 0 0 1-.581.578c-5.372 3.274-10.752 6.538-16.129 9.803L.57 46.126c-.113.068-.235.123-.353.184"/><path fill="#F0C55A" d="M29.705 21.823l7.625-12.56-.079-.072-12.555 7.622 5.009 5.01"/><path fill="#FFFFFE" d="M22.436 26.634a2.578 2.578 0 0 0 2.593-2.553c.007-1.419-1.141-2.586-2.553-2.592a2.577 2.577 0 0 0-2.592 2.553 2.575 2.575 0 0 0 2.552 2.592"/></g></svg>