<svg enable-background="new 0 0 1000 1000" viewBox="0 0 1000 1000" xmlns="http://www.w3.org/2000/svg"><g fill="#fff"><path d="m153.7 153.7c-95.8 95.8-143.7 211.6-143.7 345.3 0 135.7 47.9 251.5 143.7 347.3 95.8 95.8 209.6 143.7 345.3 143.7s251.5-47.9 347.3-143.7 143.7-211.6 143.7-347.3-47.9-249.5-143.7-345.3c-95.8-95.8-211.6-143.7-347.3-143.7-133.7 0-249.5 47.9-345.3 143.7zm55.9 57.9 2-2c77.8-79.9 175.6-119.8 287.4-119.8 113.8 0 209.6 39.9 291.4 121.8 79.8 77.8 119.8 175.6 119.8 287.4 0 113.8-39.9 209.6-119.8 291.4-81.8 79.9-177.6 119.8-291.4 119.8-111.8 0-209.6-39.9-287.4-119.8-81.8-81.8-121.8-177.6-121.8-291.4 0-111.8 40-209.6 119.8-287.4z"/><path d="m293.4 331.3c0 12 4 22 12 29.9l137.7 135.8-137.7 135.7c-8 8-12 18-12 29.9 0 10 4 18 12 26s18 12 28 12c12 0 20-4 27.9-10l137.7-137.7 135.7 137.7c8 6 16 10 28 10s21.9-4 27.9-10c8-8 12-18 12-28 0-12-4-21.9-12-29.9l-135.7-135.7 135.7-135.7c8-8 12-18 12-27.9 0-12-4-22-12-29.9-6-8-16-12-25.9-12-12 0-21.9 4-29.9 12l-135.8 137.6-135.7-137.7c-8-8-18-12-29.9-12-10 0-20 4-28 12s-12 18-12 27.9z"/></g></svg>