<?xml version="1.0" encoding="UTF-8"?>
<svg width="28px" height="50px" viewBox="0 0 28 50" version="1.1" xmlns="http://www.w3.org/2000/svg" xmlns:xlink="http://www.w3.org/1999/xlink">
    <!-- Generator: Sketch 49.3 (51167) - http://www.bohemiancoding.com/sketch -->
    <title>facebook2</title>
    <desc>Created with Sketch.</desc>
    <defs></defs>
    <g id="Page-1" stroke="none" stroke-width="1" fill="none" fill-rule="evenodd">
        <g id="facebook2" fill="#FFFFFF" fill-rule="nonzero">
            <path d="M26.0915855,0.0104033374 L19.6077055,0 C12.3232886,0 7.61577844,4.82974938 7.61577844,12.3050675 L7.61577844,17.9785275 L1.09652706,17.9785275 C0.533186345,17.9785275 0.077,18.435234 0.077,18.9985747 L0.077,27.2187718 C0.077,27.7821125 0.533706511,28.2382988 1.09652706,28.2382988 L7.61577844,28.2382988 L7.61577844,48.9804729 C7.61577844,49.5438137 8.07196478,50 8.6353055,50 L17.1410742,50 C17.7044149,50 18.1606012,49.5432935 18.1606012,48.9804729 L18.1606012,28.2382988 L25.7831265,28.2382988 C26.3464672,28.2382988 26.8026536,27.7821125 26.8026536,27.2187718 L26.8057746,18.9985747 C26.8057746,18.728088 26.6981,18.4690449 26.5071988,18.2776235 C26.3162976,18.0862021 26.0562141,17.9785275 25.7857274,17.9785275 L18.1606012,17.9785275 L18.1606012,13.1690646 C18.1606012,10.8574431 18.7114579,9.68394661 21.7227039,9.68394661 L26.0905451,9.68238611 C26.6533657,9.68238611 27.109552,9.2256796 27.109552,8.66285905 L27.109552,1.0299304 C27.109552,0.467630016 26.6538859,0.0114436711 26.0915855,0.0104033374 Z"></path>
        </g>
    </g>
</svg>