<svg height="100" width="100" xmlns="http://www.w3.org/2000/svg"><path d="m50.1 58.4c-4.5 0-9.2-4.2-8.1-9.7.7-3.5 3.3-5.9 6.8-6.4 4.8-.6 9.6 2.9 9.3 8.5-.2 4.2-3.9 7.6-8 7.6zm21.2-31.8c.9 0 1.7.7 1.6 1.6v6.3c0 .9-.7 1.6-1.6 1.6h-6.3c-.9 0-1.6-.7-1.6-1.6v-6.3c0-.9.7-1.6 1.6-1.6zm-21.3-26.6c-27.6 0-50 22.4-50 50s22.4 50 50 50 50-22.4 50-50-22.4-50-50-50zm28.1 65.2c0 3.8-.7 6.7-2.7 9-1.8 2-4.2 3.7-7.6 4-5.6.4-11.6 0-17.6 0-5.7 0-11.8.4-17.6 0-5.7-.4-10.1-4.6-10.5-10.5-.6-7.8.4-17 0-25.4 0-.2.1-.4.3-.4h15.8c.5.3-.4 1-.7 1.5-1.1 2-1.9 5-1.6 8.3.4 6.6 6 12.3 13.1 12.8 5.2.4 9.4-2.1 12-5.3 2.4-2.9 4.4-8 2.6-13.4-.2-.7-.6-1.4-1-2-.3-.6-.8-1.2-.8-1.9h16.1c.3 8.2.2 15.7.2 23.3zm-39.1-14.7c-.1-3.6 1.6-6.5 3.3-8.2s3.8-2.8 7.1-3c6.1-.4 11.1 3.9 11.7 9.5.6 6.2-3.7 11.7-9.3 12.4-1 .1-2.4.1-3.4 0-4.9-.5-9.3-5-9.4-10.7zm39.1-10.2h-13.2c-1.4 0-3.1.3-4.4 0-.8-.2-1.2-1-1.9-1.5-2.2-1.6-5.6-3-9.8-2.7-3.1.2-5.2 1.3-7.2 2.9-.5.4-1.3 1.2-1.9 1.4-1.2.3-3 0-4.5 0h-13.1c.2-3.3-.4-6.5.1-9.3.6-3.3 2.6-5.6 4.6-7v11.7h2.2s-.2-9 .1-13.1c.3-.3 1-.2 1.4-.5.3 4.2.3 13.6.3 13.6h2.2v-13.5c0-.2 0-.4.1-.4h1.4v13.9h2.3v-13.9c9.4.5 21.5-.6 30.7 0 3.6.2 6.6 2 8.3 4.2 2.5 3.2 2.4 7.9 2.3 14.2z" fill="#fff"/></svg>