<?xml version="1.0" encoding="UTF-8"?>
<svg width="50px" height="50px" viewBox="0 0 50 50" version="1.1" xmlns="http://www.w3.org/2000/svg" xmlns:xlink="http://www.w3.org/1999/xlink">
    <!-- Generator: Sketch 49.3 (51167) - http://www.bohemiancoding.com/sketch -->
    <title>instagram2</title>
    <desc>Created with Sketch.</desc>
    <defs></defs>
    <g id="Page-1" stroke="none" stroke-width="1" fill="none" fill-rule="evenodd">
        <g id="instagram2" fill="#FFFFFF" fill-rule="nonzero">
            <path d="M36.0017647,0 L13.7217647,0 C6.15558824,0 0,6.15588235 0,13.7220588 L0,36.0020588 C0,43.5685294 6.15558824,49.7241176 13.7217647,49.7241176 L36.0017647,49.7241176 C43.5685294,49.7241176 49.7241176,43.5682353 49.7241176,36.0020588 L49.7241176,13.7220588 C49.7244118,6.15588235 43.5685294,0 36.0017647,0 Z M45.3126471,36.0020588 C45.3126471,41.1358824 41.1358824,45.3123529 36.0020588,45.3123529 L13.7217647,45.3123529 C8.58823529,45.3126471 4.41176471,41.1358824 4.41176471,36.0020588 L4.41176471,13.7220588 C4.41176471,8.58852941 8.58823529,4.41176471 13.7217647,4.41176471 L36.0017647,4.41176471 C41.1355882,4.41176471 45.3123529,8.58852941 45.3123529,13.7220588 L45.3123529,36.0020588 L45.3126471,36.0020588 Z" id="Shape"></path>
            <path d="M24.8620588,12.05 C17.7970588,12.05 12.0494118,17.7976471 12.0494118,24.8626471 C12.0494118,31.9273529 17.7970588,37.6747059 24.8620588,37.6747059 C31.9270588,37.6747059 37.6747059,31.9273529 37.6747059,24.8626471 C37.6747059,17.7976471 31.9270588,12.05 24.8620588,12.05 Z M24.8620588,33.2626471 C20.23,33.2626471 16.4611765,29.4944118 16.4611765,24.8623529 C16.4611765,20.23 20.2297059,16.4614706 24.8620588,16.4614706 C29.4944118,16.4614706 33.2629412,20.23 33.2629412,24.8623529 C33.2629412,29.4944118 29.4941176,33.2626471 24.8620588,33.2626471 Z" id="Shape"></path>
            <path d="M38.2120588,8.30911765 C37.3620588,8.30911765 36.5270588,8.65323529 35.9267647,9.25617647 C35.3235294,9.85617647 34.9767647,10.6914706 34.9767647,11.5444118 C34.9767647,12.3947059 35.3238235,13.2297059 35.9267647,13.8326471 C36.5267647,14.4326471 37.3620588,14.7797059 38.2120588,14.7797059 C39.065,14.7797059 39.8973529,14.4326471 40.5002941,13.8326471 C41.1032353,13.2297059 41.4473529,12.3944118 41.4473529,11.5444118 C41.4473529,10.6914706 41.1032353,9.85617647 40.5002941,9.25617647 C39.9002941,8.65323529 39.065,8.30911765 38.2120588,8.30911765 Z" id="Shape"></path>
        </g>
    </g>
</svg>