<svg height="48" width="48" xmlns="http://www.w3.org/2000/svg"><path d="m46.697 41.04-10.4-10.4c-.055-.054-.12-.093-.177-.145a19.583 19.583 0 0 0 3.24-10.815c0-10.869-8.81-19.68-19.68-19.68-10.869 0-19.68 8.811-19.68 19.68s8.811 19.68 19.68 19.68c3.996 0 7.711-1.194 10.815-3.24.052.057.09.122.145.178l10.4 10.399a4 4 0 0 0 5.657-5.657zm-27.017-8.502c-7.101 0-12.858-5.757-12.858-12.858s5.757-12.858 12.858-12.858 12.858 5.757 12.858 12.858-5.757 12.858-12.858 12.858z" fill="#808285" fill-rule="evenodd"/></svg>