<svg height="100" width="100" xmlns="http://www.w3.org/2000/svg"><path d="m50 0c-27.6 0-50 22.4-50 50s22.4 50 50 50 50-22.4 50-50-22.4-50-50-50zm26.7 36.4c.3 9.1-2.3 16.4-5.7 22.1-3.3 5.6-7.8 10.1-13.2 13.3-5.4 3.3-12.6 5.7-21.1 5.4-7.9-.2-14.2-2.5-19.3-5.6-.3-.2-.7-.4-.9-.7 8.8 1 15.5-1.9 20.3-5.6-3.5-.1-6.2-1.3-8.2-3-2-1.6-3.7-3.8-4.6-6.6 1.8.4 4.4.3 6-.2-3.3-.7-5.7-2.5-7.6-4.7-1.9-2.1-3.2-5-3.2-9 .1-.2.4.1.6.2 1.5.7 3.4 1.3 5.5 1.4-3.4-2.4-6.8-7-5.8-13.5.3-1.9.9-3.5 1.7-4.9.9.9 1.7 1.9 2.6 2.8 6.2 6.2 14.2 10.7 25.8 11.6-1.6-7.1 2.1-12.4 6.6-15 2.5-1.4 6-2.1 9.4-1.4 3.1.6 5.5 2.2 7.3 4 3.4-.6 6.1-1.9 8.7-3.3-1.2 3.3-3.1 5.9-6 7.5 2.8-.2 5.5-1.2 7.8-2.1-1.7 2.9-4.1 5.2-6.7 7.3z" fill="#fff"/></svg>