<?xml version="1.0" encoding="UTF-8"?>
<svg width="50px" height="41px" viewBox="0 0 50 41" version="1.1" xmlns="http://www.w3.org/2000/svg" xmlns:xlink="http://www.w3.org/1999/xlink">
    <!-- Generator: Sketch 49.3 (51167) - http://www.bohemiancoding.com/sketch -->
    <title>twitter2</title>
    <desc>Created with Sketch.</desc>
    <defs></defs>
    <g id="Page-1" stroke="none" stroke-width="1" fill="none" fill-rule="evenodd">
        <g id="twitter2" fill="#FFFFFF" fill-rule="nonzero">
            <path d="M50,4.84133987 C48.1597222,5.65678105 46.1851307,6.20980392 44.1104575,6.45669935 C46.2288399,5.18815359 47.8504085,3.17606209 48.6189542,0.785866013 C46.6318627,1.96062092 44.4384804,2.81364379 42.1013889,3.27606209 C40.229902,1.27957516 37.5678922,0.0360294118 34.6152778,0.0360294118 C28.9507353,0.0360294118 24.3578431,4.62892157 24.3578431,10.2903595 C24.3578431,11.0933007 24.4484477,11.8775327 24.6234477,12.627451 C16.1000817,12.1993464 8.54215686,8.11576797 3.48374183,1.91062092 C2.5995098,3.42287582 2.09648693,5.18496732 2.09648693,7.06593137 C2.09648693,10.6246732 3.90866013,13.7647059 6.65816993,15.6017974 C4.97720588,15.5455882 3.39624183,15.0831699 2.0121732,14.3145425 L2.0121732,14.4426471 C2.0121732,19.4104575 5.54901961,23.5565359 10.2387255,24.5001634 C9.37949346,24.7313725 8.47344771,24.8594771 7.53611111,24.8594771 C6.87377451,24.8594771 6.23325163,24.7938725 5.60522876,24.6688725 C6.91119281,28.7462418 10.6980392,31.7112745 15.1847222,31.7925654 C11.6759804,34.5420752 7.25179739,36.1761438 2.44648693,36.1761438 C1.61854575,36.1761438 0.803022876,36.1261438 8.16993464e-05,36.0355392 C4.53986928,38.9506536 9.92949346,40.6503268 15.7221405,40.6503268 C34.5904412,40.6503268 44.9041667,25.0219771 44.9041667,11.4683007 L44.8697712,10.1404412 C46.8849673,8.70310458 48.6283497,6.89722222 50,4.84133987 Z"></path>
        </g>
    </g>
</svg>